#!OML:ASF Y:\EmotionMaleHayes\Project 1\Capture day 1\Session 1\Male1.ASF
:FULLY-SPECIFIED
:DEGREES
341
root -24.0153 17.2708 -1.24587 1.66366 77.8645 1.59781
lowerback 6.21673 3.11075 -4.13517
upperback 2.73944 3.95261 -0.897496
thorax -0.864699 1.97894 1.11144
lowerneck -24.278 3.6709 5.9916
upperneck 30.641 4.43676 -3.10943
head 14.9431 2.28612 -1.39482
rclavicle -3.25013e-014 2.78299e-015
rhumerus 42.8748 22.1011 -38.3716
rradius 41.8822
rwrist -4.32155
rhand -0.599563 -30.1811
rfingers 7.12502
rthumb 25.016 -58.5631
lclavicle -3.25013e-014 2.78299e-015
lhumerus 37.7522 -19.965 28.3578
lradius 41.5124
lwrist 5.83547
lhand -7.60552 -22.5393
lfingers 7.12502
lthumb 18.2884 6.62095
rfemur 13.791 -0.192415 3.43622
rtibia 11.9439
rfoot -8.27838 -10.842
rtoes 12.3956
lfemur 7.03965 8.92247 -17.2239
ltibia 1.4572
lfoot -11.2395 11.8465
ltoes 4.23445
342
root -23.9827 17.2736 -1.27468 0.825775 77.865 0.738966
lowerback 5.84986 3.07373 -4.06913
upperback 3.025 3.94128 -0.872548
thorax -0.363442 1.96445 1.13266
lowerneck -24.281 3.75729 5.91585
upperneck 30.3319 4.4997 -2.92425
head 14.7997 2.32289 -1.29204
rclavicle -9.83984e-015 2.38542e-015
rhumerus 43.1706 21.7704 -38.3227
rradius 41.8718
rwrist -4.14888
rhand -0.497448 -30.1051
rfingers 7.12502
rthumb 25.1138 -58.4734
lclavicle -9.83984e-015 2.38542e-015
lhumerus 37.9105 -19.665 28.1226
lradius 41.5284
lwrist 5.84775
lhand -7.66592 -22.5104
lfingers 7.12502
lthumb 18.2303 6.65527
rfemur 13.8799 0.470402 3.83243
rtibia 11.6129
rfoot -9.3423 -10.9921
rtoes 21.4318
lfemur 7.11087 9.04779 -17.089
ltibia 1.53255
lfoot -11.2614 11.7525
ltoes 3.49204
343
root -23.9486 17.2759 -1.30446 0.498561 77.8229 0.329195
lowerback 6.24973 3.15192 -4.12438
upperback 2.71425 4.00482 -0.871072
thorax -0.912831 2.00564 1.12565
lowerneck -24.1727 3.70963 5.82572
upperneck 30.6014 4.43126 -2.72289
head 14.8854 2.32202 -1.20785
rclavicle -1.26228e-014 3.57812e-015
rhumerus 42.7637 21.9988 -38.3613
rradius 41.9382
rwrist -4.29033
rhand -0.465936 -30.0538
rfingers 7.12502
rthumb 25.144 -58.4179
lclavicle -1.26228e-014 3.57812e-015
lhumerus 37.7795 -20.2119 27.8647
lradius 41.6939
lwrist 6.12218
lhand -7.74241 -22.4504
lfingers 7.12502
lthumb 18.1567 6.72214
rfemur 13.6435 -0.346073 3.72333
rtibia 11.6479
rfoot -8.52406 -10.7278
rtoes 15.723
lfemur 7.11581 9.15829 -17.1011
ltibia 1.59029
lfoot -11.3316 11.7446
ltoes 2.87502
344
root -23.9156 17.277 -1.33598 -0.517151 77.8915 -0.81168
lowerback 6.10698 3.11873 -3.9448
upperback 2.77965 3.98116 -0.834782
thorax -0.75606 1.99175 1.07596
lowerneck -24.2786 3.73161 5.89016
upperneck 30.6408 4.46246 -2.81283
head 14.9329 2.32809 -1.24881
rclavicle -2.06736e-014 1.86858e-014
rhumerus 42.8816 21.9805 -38.1786
rradius 42.0272
rwrist -4.51023
rhand -0.443629 -30.1075
rfingers 7.12502
rthumb 25.1654 -58.4686
lclavicle -2.06736e-014 1.86858e-014
lhumerus 37.8494 -20.0916 27.7435
lradius 41.6821
lwrist 6.08428
lhand -7.75209 -22.486
lfingers 7.12502
lthumb 18.1474 6.68748
rfemur 13.4595 -0.614233 3.9053
rtibia 11.6681
rfoot -8.87457 -10.3669
rtoes 16.9289
lfemur 7.19408 8.7721 -17.0952
ltibia 1.37143
lfoot -11.4299 12.0448
ltoes 2.86496
345
root -23.8841 17.2792 -1.36315 -1.57302 78.0177 -1.93014
lowerback 6.04442 3.06585 -3.80573
upperback 2.85259 3.92525 -0.799024
thorax -0.637115 1.9625 1.04596
lowerneck -24.3365 3.77708 6.05264
upperneck 30.6321 4.52672 -3.01165
head 14.9565 2.34371 -1.34564
rclavicle -4.60187e-014 6.36111e-015
rhumerus 42.996 21.9293 -38.0455
rradius 42.0812
rwrist -4.46106
rhand -0.360772 -30.0209
rfingers 7.12502
rthumb 25.2448 -58.3709
lclavicle -4.60187e-014 6.36111e-015
lhumerus 37.8941 -19.9501 27.6431
lradius 41.6484
lwrist 5.9038
lhand -7.65831 -22.632
lfingers 7.12502
lthumb 18.2376 6.53303
rfemur 13.4142 -0.713897 4.18029
rtibia 11.3316
rfoot -9.01449 -10.4005
rtoes 17.2899
lfemur 7.27669 8.60914 -16.9972
ltibia 1.28631
lfoot -11.5546 12.0566
ltoes 2.806
346
root -23.8534 17.2818 -1.38616 -1.97558 78.0085 -2.31143
lowerback 6.00263 3.06793 -3.90354
upperback 2.95209 3.93026 -0.773646
thorax -0.51942 1.96213 1.13166
lowerneck -24.2757 3.80088 6.13285
upperneck 30.5196 4.56415 -3.1233
head 14.9003 2.35118 -1.39869
rclavicle -1.98785e-014 2.82274e-014
rhumerus 43.144 21.7738 -38.0784
rradius 42.0019
rwrist -4.27797
rhand -0.347421 -29.7708
rfingers 7.12502
rthumb 25.2576 -58.119
lclavicle -1.98785e-014 2.82274e-014
lhumerus 37.9001 -19.8461 27.4944
lradius 41.6941
lwrist 5.94301
lhand -7.63148 -22.6562
lfingers 7.12502
lthumb 18.2634 6.50644
rfemur 13.3325 -0.928511 4.32934
rtibia 11.1894
rfoot -8.75373 -10.5658
rtoes 12.5491
lfemur 7.38277 8.69931 -16.9627
ltibia 1.33783
lfoot -11.6663 11.9661
ltoes 3.14576
347
root -23.8228 17.2823 -1.41094 -2.92744 77.8805 -3.29505
lowerback 6.26614 3.12827 -3.7826
upperback 2.8115 3.9971 -0.769033
thorax -0.806371 2.00112 1.04415
lowerneck -24.1855 3.77054 6.09833
upperneck 30.6116 4.50847 -3.00273
head 14.9143 2.34563 -1.35483
rclavicle 2.5345e-014 -2.14687e-014
rhumerus 42.9737 21.7681 -38.2864
rradius 41.9556
rwrist -4.13669
rhand -0.195269 -29.6486
rfingers 7.12502
rthumb 25.4033 -57.9761
lclavicle 2.5345e-014 -2.14687e-014
lhumerus 37.8169 -19.9367 27.5955
lradius 41.6834
lwrist 5.86099
lhand -7.62467 -22.6239
lfingers 7.12502
lthumb 18.27 6.53805
rfemur 13.1219 -0.711976 4.68528
rtibia 11.1754
rfoot -9.19221 -10.3684
rtoes 15.0172
lfemur 7.4994 8.6549 -16.8373
ltibia 1.29066
lfoot -11.7161 12.1296
ltoes 3.46599
348
root -23.7894 17.2804 -1.43722 -2.43188 77.8519 -2.86557
lowerback 6.28443 3.17155 -3.9847
upperback 2.7865 4.04103 -0.798566
thorax -0.855398 2.02286 1.12039
lowerneck -24.2959 3.74505 5.91828
upperneck 30.7373 4.45778 -2.75494
head 14.9796 2.33977 -1.23016
rclavicle -1.87852e-014 -1.59028e-015
rhumerus 42.9436 21.639 -38.375
rradius 41.8819
rwrist -3.95771
rhand 0.114649 -29.5735
rfingers 7.12502
rthumb 25.7002 -57.8584
lclavicle -1.87852e-014 -1.59028e-015
lhumerus 37.803 -19.8623 27.8164
lradius 41.611
lwrist 5.71856
lhand -7.64449 -22.6643
lfingers 7.12502
lthumb 18.2509 6.49951
rfemur 12.9601 -0.365527 4.63333
rtibia 11.1074
rfoot -10.0798 -10.01
rtoes 21.5903
lfemur 7.50897 8.69946 -17.1002
ltibia 1.30967
lfoot -11.7724 12.1363
ltoes 3.04504
349
root -23.7536 17.2778 -1.46235 0.0297916 77.8934 -0.389108
lowerback 6.18822 3.18625 -4.63897
upperback 2.84585 4.03292 -0.924461
thorax -0.773526 2.01436 1.36183
lowerneck -24.2945 3.73213 5.78472
upperneck 30.7227 4.45477 -2.64611
head 14.9649 2.33812 -1.16286
rclavicle -8.94531e-015 8.34896e-015
rhumerus 43.0273 21.5757 -38.4016
rradius 41.7856
rwrist -3.93707
rhand -0.149119 -29.358
rfingers 7.12502
rthumb 25.4475 -57.6792
lclavicle -8.94531e-015 8.34896e-015
lhumerus 37.768 -19.7801 27.8324
lradius 41.6247
lwrist 5.70879
lhand -7.61718 -22.6435
lfingers 7.12502
lthumb 18.2772 6.51778
rfemur 12.7703 -1.24648 3.75354
rtibia 10.8592
rfoot -9.217 -9.79425
rtoes 15.7185
lfemur 7.56607 8.68723 -17.8926
ltibia 1.29083
lfoot -11.84 12.103
ltoes 2.95058
350
root -23.724 17.2777 -1.48483 0.044994 77.8896 -0.354451
lowerback 5.85569 3.1574 -4.76867
upperback 3.16259 4.02627 -0.917265
thorax -0.270031 1.99881 1.47249
lowerneck -24.3731 3.78275 5.89177
upperneck 30.4774 4.5482 -2.90736
head 14.887 2.3439 -1.27037
rclavicle -1.00386e-014 -2.78299e-015
rhumerus 43.4719 21.4197 -37.8947
rradius 41.9097
rwrist -4.30273
rhand -0.712924 -29.3482
rfingers 7.12502
rthumb 24.9073 -57.7453
lclavicle -1.00386e-014 -2.78299e-015
lhumerus 37.9623 -19.2669 27.8502
lradius 41.5145
lwrist 5.6063
lhand -7.48916 -22.4704
lfingers 7.12502
lthumb 18.4003 6.67937
rfemur 12.5748 -1.4969 3.71561
rtibia 10.7357
rfoot -9.00944 -9.52137
rtoes 13.9857
lfemur 7.70804 8.53027 -18.0309
ltibia 1.20151
lfoot -11.7787 12.2372
ltoes 2.33462
351
root -23.6997 17.2817 -1.50391 -1.94178 77.836 -2.36332
lowerback 6.26602 3.22814 -4.47217
upperback 2.98354 4.10147 -0.816338
thorax -0.675254 2.04665 1.3755
lowerneck -24.2674 3.71142 5.83705
upperneck 30.6291 4.4743 -2.85936
head 14.9253 2.31955 -1.25706
rclavicle -1.13307e-014 2.54444e-014
rhumerus 43.1816 21.6007 -37.5937
rradius 42.1706
rwrist -4.50724
rhand -0.650418 -29.7031
rfingers 7.12502
rthumb 24.9672 -58.0919
lclavicle -1.13307e-014 2.54444e-014
lhumerus 38.0067 -19.4313 27.9772
lradius 41.4116
lwrist 5.5451
lhand -7.55351 -22.3625
lfingers 7.12502
lthumb 18.3384 6.79305
rfemur 12.387 -0.72179 4.53031
rtibia 10.6367
rfoot -10.0888 -9.51861
rtoes 20.6309
lfemur 7.83892 8.40261 -17.6068
ltibia 1.13906
lfoot -11.5707 12.4414
ltoes 0.504104
352
root -23.6717 17.2838 -1.52281 -2.31842 77.8233 -2.74763
lowerback 6.0891 3.21122 -4.51797
upperback 3.15662 4.09642 -0.808823
thorax -0.401524 2.038 1.42587
lowerneck -24.2704 3.7523 5.75987
upperneck 30.5292 4.51233 -2.73449
head 14.8766 2.34194 -1.18451
rclavicle 2.06736e-014 -7.15625e-015
rhumerus 43.3422 21.4181 -37.614
rradius 42.2376
rwrist -4.46168
rhand -0.579937 -29.8911
rfingers 7.12502
rthumb 25.0348 -58.2705
lclavicle 2.06736e-014 -7.15625e-015
lhumerus 38.0504 -19.1153 28.0017
lradius 41.3815
lwrist 5.52624
lhand -7.63473 -22.4176
lfingers 7.12502
lthumb 18.2603 6.74527
rfemur 12.069 -0.953127 4.68646
rtibia 10.6517
rfoot -10.158 -9.63644
rtoes 18.3123
lfemur 7.97167 8.25586 -17.6409
ltibia 1.05253
lfoot -11.657 12.5991
ltoes 0.497339
353
root -23.6401 17.2806 -1.5443 -2.06721 77.879 -2.49709
lowerback 5.97758 3.16538 -4.73181
upperback 3.28344 4.03857 -0.788076
thorax -0.220268 2.00276 1.58084
lowerneck -24.2667 3.83517 5.86597
upperneck 30.4106 4.65623 -2.94726
head 14.8401 2.38111 -1.26205
rclavicle 4.57205e-015 1.98785e-015
rhumerus 43.6341 21.4261 -37.3857
rradius 42.2879
rwrist -4.75151
rhand -0.790525 -29.9446
rfingers 7.12502
rthumb 24.833 -58.352
lclavicle 4.57205e-015 1.98785e-015
lhumerus 37.9557 -18.844 28.0783
lradius 41.3887
lwrist 5.5318
lhand -7.70739 -22.4968
lfingers 7.12502
lthumb 18.1904 6.67267
rfemur 11.8322 -1.12615 4.62693
rtibia 10.6286
rfoot -10.3374 -9.57345
rtoes 17.4834
lfemur 8.07465 8.05792 -17.8733
ltibia 1.00567
lfoot -12.106 12.6689
ltoes 2.46634
